<?xml version="1.0" encoding="UTF-8"?>
<!DOCTYPE svg PUBLIC "-//W3C//DTD SVG 1.1//EN" "http://www.w3.org/Graphics/SVG/1.1/DTD/svg11.dtd">
<svg xmlns="http://www.w3.org/2000/svg" version="1.1" width="2000px" height="1500px" style="shape-rendering:geometricPrecision; text-rendering:geometricPrecision; image-rendering:optimizeQuality; fill-rule:evenodd; clip-rule:evenodd" xmlns:xlink="http://www.w3.org/1999/xlink">
<g><path style="opacity:1" fill="#111111" d="M -0.5,-0.5 C 666.167,-0.5 1332.83,-0.5 1999.5,-0.5C 1999.5,499.5 1999.5,999.5 1999.5,1499.5C 1332.83,1499.5 666.167,1499.5 -0.5,1499.5C -0.5,999.5 -0.5,499.5 -0.5,-0.5 Z"/></g>
<g><path style="opacity:1" fill="#9d9d9d" d="M 674.5,617.5 C 670.298,617.183 666.298,617.517 662.5,618.5C 661.957,618.44 661.624,618.107 661.5,617.5C 665.984,616.189 670.317,616.189 674.5,617.5 Z"/></g>
<g><path style="opacity:1" fill="#9e9e9e" d="M 708.5,617.5 C 759.335,616.169 810.335,616.169 861.5,617.5C 861.376,618.107 861.043,618.44 860.5,618.5C 810.003,617.501 759.336,617.168 708.5,617.5 Z"/></g>
<g><path style="opacity:1" fill="#ababab" d="M 546.5,617.5 C 527.167,617.5 507.833,617.5 488.5,617.5C 488.5,705.5 488.5,793.5 488.5,881.5C 487.501,793.335 487.167,705.002 487.5,616.5C 507.34,616.17 527.007,616.503 546.5,617.5 Z"/></g>
<g><path style="opacity:1" fill="#f9f9f9" d="M 546.5,617.5 C 567.106,617.322 586.439,622.155 604.5,632C 629.546,648.959 639.046,672.459 633,702.5C 630.02,716.63 622.853,728.13 611.5,737C 604.087,741.029 597.087,745.529 590.5,750.5C 606.373,794.12 622.039,837.787 637.5,881.5C 597.5,881.5 557.5,881.5 517.5,881.5C 517.5,877.833 517.5,874.167 517.5,870.5C 552.173,870.833 586.84,870.5 621.5,869.5C 621.376,868.893 621.043,868.56 620.5,868.5C 606.129,827.419 591.463,786.419 576.5,745.5C 585.389,739.142 594.723,733.308 604.5,728C 620.313,713.223 626.146,695.057 622,673.5C 617.533,655.698 606.699,643.531 589.5,637C 575.6,632.014 561.266,629.348 546.5,629C 530.837,628.5 515.17,628.333 499.5,628.5C 499.5,712.833 499.5,797.167 499.5,881.5C 495.833,881.5 492.167,881.5 488.5,881.5C 488.5,793.5 488.5,705.5 488.5,617.5C 507.833,617.5 527.167,617.5 546.5,617.5 Z"/></g>
<g><path style="opacity:1" fill="#f8f8f8" d="M 674.5,617.5 C 703.239,663.308 732.239,708.974 761.5,754.5C 788.08,713.01 814.414,671.344 840.5,629.5C 841.043,629.44 841.376,629.107 841.5,628.5C 797.172,627.5 752.838,627.167 708.5,627.5C 708.5,624.167 708.5,620.833 708.5,617.5C 759.336,617.168 810.003,617.501 860.5,618.5C 829.928,667.973 799.095,717.307 768,766.5C 767.5,804.832 767.333,843.165 767.5,881.5C 763.5,881.5 759.5,881.5 755.5,881.5C 755.667,843.165 755.5,804.832 755,766.5C 723.905,717.307 693.072,667.973 662.5,618.5C 666.298,617.517 670.298,617.183 674.5,617.5 Z"/></g>
<g><path style="opacity:1" fill="#f9f9f9" d="M 1190.5,881.5 C 1174.34,880.504 1158.01,880.17 1141.5,880.5C 1141.5,877.167 1141.5,873.833 1141.5,870.5C 1190.83,870.5 1240.17,870.5 1289.5,870.5C 1290.67,795.001 1290.83,719.334 1290,643.5C 1289.28,644.044 1288.78,644.711 1288.5,645.5C 1260.95,705.598 1233.12,765.598 1205,825.5C 1176.9,766.292 1149.06,706.958 1121.5,647.5C 1121.01,646.527 1120.51,645.527 1120,644.5C 1119.5,723.499 1119.33,802.499 1119.5,881.5C 1115.83,881.5 1112.17,881.5 1108.5,881.5C 1108.5,793.167 1108.5,704.833 1108.5,616.5C 1112.44,616.207 1116.27,616.54 1120,617.5C 1148.08,677.985 1176.41,738.318 1205,798.5C 1233.07,738.124 1261.24,677.791 1289.5,617.5C 1293.45,616.509 1297.45,616.176 1301.5,616.5C 1301.5,704.833 1301.5,793.167 1301.5,881.5C 1264.5,881.5 1227.5,881.5 1190.5,881.5 Z"/></g>
<g><path style="opacity:1" fill="#686868" d="M 1595.5,617.5 C 1591.17,617.5 1586.83,617.5 1582.5,617.5C 1582.5,705.5 1582.5,793.5 1582.5,881.5C 1581.5,793.335 1581.17,705.002 1581.5,616.5C 1586.36,616.181 1591.03,616.514 1595.5,617.5 Z"/></g>
<g><path style="opacity:1" fill="#fcfcfc" d="M 1595.5,617.5 C 1642.53,697.886 1689.2,778.553 1735.5,859.5C 1735.78,860.289 1736.28,860.956 1737,861.5C 1737.5,780.167 1737.67,698.834 1737.5,617.5C 1740.83,617.5 1744.17,617.5 1747.5,617.5C 1747.5,705.5 1747.5,793.5 1747.5,881.5C 1702.17,881.5 1656.83,881.5 1611.5,881.5C 1611.5,877.833 1611.5,874.167 1611.5,870.5C 1650.51,870.833 1689.51,870.5 1728.5,869.5C 1728.38,868.893 1728.04,868.56 1727.5,868.5C 1683.53,791.228 1639.03,714.228 1594,637.5C 1593.5,718.833 1593.33,800.166 1593.5,881.5C 1589.83,881.5 1586.17,881.5 1582.5,881.5C 1582.5,793.5 1582.5,705.5 1582.5,617.5C 1586.83,617.5 1591.17,617.5 1595.5,617.5 Z"/></g>
<g><path style="opacity:1" fill="#b8b8b8" d="M 1736.5,617.5 C 1736.83,617.5 1737.17,617.5 1737.5,617.5C 1737.67,698.834 1737.5,780.167 1737,861.5C 1736.28,860.956 1735.78,860.289 1735.5,859.5C 1736.5,779.002 1736.83,698.335 1736.5,617.5 Z"/></g>
<g><path style="opacity:1" fill="#a4a4a4" d="M 1736.5,617.5 C 1740.3,616.517 1744.3,616.183 1748.5,616.5C 1748.83,705.002 1748.5,793.335 1747.5,881.5C 1747.5,793.5 1747.5,705.5 1747.5,617.5C 1744.17,617.5 1740.83,617.5 1737.5,617.5C 1737.17,617.5 1736.83,617.5 1736.5,617.5 Z"/></g>
<g><path style="opacity:1" fill="#fafafa" d="M 288.5,870.5 C 334.838,870.833 381.171,870.5 427.5,869.5C 427.376,868.893 427.043,868.56 426.5,868.5C 400.686,795.555 374.186,722.889 347,650.5C 318.664,727.345 290.83,804.345 263.5,881.5C 259.5,881.5 255.5,881.5 251.5,881.5C 282.628,793.285 314.461,705.285 347,617.5C 379.452,705.018 411.618,792.685 443.5,880.5C 391.838,881.5 340.171,881.833 288.5,881.5C 288.5,877.833 288.5,874.167 288.5,870.5 Z"/></g>
<g><path style="opacity:1" fill="#f9f9f9" d="M 908.5,870.5 C 954.833,870.5 1001.17,870.5 1047.5,870.5C 1047.74,869.209 1047.4,868.209 1046.5,867.5C 1020.64,795.087 994.473,722.754 968,650.5C 939.741,726.695 911.741,803.028 884,879.5C 882.13,880.743 879.964,881.41 877.5,881.5C 875.5,881.167 873.5,880.833 871.5,880.5C 903.227,792.716 935.227,705.05 967.5,617.5C 1000.49,705.137 1032.49,793.137 1063.5,881.5C 1011.83,881.5 960.167,881.5 908.5,881.5C 908.5,877.833 908.5,874.167 908.5,870.5 Z"/></g>
<g><path style="opacity:1" fill="#f9f9f9" d="M 1382.5,870.5 C 1428.83,870.5 1475.17,870.5 1521.5,870.5C 1521.74,869.209 1521.4,868.209 1520.5,867.5C 1494.83,795.332 1468.67,723.332 1442,651.5C 1413.23,727.125 1385.23,803.125 1358,879.5C 1354.16,881.389 1350,882.055 1345.5,881.5C 1376.9,793.296 1408.9,705.296 1441.5,617.5C 1474.09,705.272 1506.09,793.272 1537.5,881.5C 1485.83,881.5 1434.17,881.5 1382.5,881.5C 1382.5,877.833 1382.5,874.167 1382.5,870.5 Z"/></g>
<g><path style="opacity:1" fill="#bfbfbf" d="M 708.5,627.5 C 752.838,627.167 797.172,627.5 841.5,628.5C 841.376,629.107 841.043,629.44 840.5,629.5C 796.5,628.833 752.5,628.167 708.5,627.5 Z"/></g>
<g><path style="opacity:1" fill="#cdcdcd" d="M 1289.5,870.5 C 1289.5,870.167 1289.5,869.833 1289.5,869.5C 1289.83,794.665 1289.5,719.998 1288.5,645.5C 1288.78,644.711 1289.28,644.044 1290,643.5C 1290.83,719.334 1290.67,795.001 1289.5,870.5 Z"/></g>
<g><path style="opacity:1" fill="#323232" d="M 1121.5,647.5 C 1120.83,725.5 1120.17,803.5 1119.5,881.5C 1119.33,802.499 1119.5,723.499 1120,644.5C 1120.51,645.527 1121.01,646.527 1121.5,647.5 Z"/></g>
<g><path style="opacity:1" fill="#707070" d="M 426.5,868.5 C 427.043,868.56 427.376,868.893 427.5,869.5C 381.171,870.5 334.838,870.833 288.5,870.5C 334.5,869.833 380.5,869.167 426.5,868.5 Z"/></g>
<g><path style="opacity:1" fill="#6f6f6f" d="M 620.5,868.5 C 621.043,868.56 621.376,868.893 621.5,869.5C 586.84,870.5 552.173,870.833 517.5,870.5C 551.833,869.833 586.167,869.167 620.5,868.5 Z"/></g>
<g><path style="opacity:1" fill="#6f6f6f" d="M 1046.5,867.5 C 1047.4,868.209 1047.74,869.209 1047.5,870.5C 1001.17,870.5 954.833,870.5 908.5,870.5C 954.676,870.165 1000.68,869.165 1046.5,867.5 Z"/></g>
<g><path style="opacity:1" fill="#6f6f6f" d="M 1520.5,867.5 C 1521.4,868.209 1521.74,869.209 1521.5,870.5C 1475.17,870.5 1428.83,870.5 1382.5,870.5C 1428.68,870.165 1474.68,869.165 1520.5,867.5 Z"/></g>
<g><path style="opacity:1" fill="#6f6f6f" d="M 1727.5,868.5 C 1728.04,868.56 1728.38,868.893 1728.5,869.5C 1689.51,870.5 1650.51,870.833 1611.5,870.5C 1650.17,869.833 1688.83,869.167 1727.5,868.5 Z"/></g>
<g><path style="opacity:1" fill="#8f8f8f" d="M 1289.5,869.5 C 1289.5,869.833 1289.5,870.167 1289.5,870.5C 1240.17,870.5 1190.83,870.5 1141.5,870.5C 1141.5,873.833 1141.5,877.167 1141.5,880.5C 1158.01,880.17 1174.34,880.504 1190.5,881.5C 1173.83,881.5 1157.17,881.5 1140.5,881.5C 1140.5,877.5 1140.5,873.5 1140.5,869.5C 1190.17,869.5 1239.83,869.5 1289.5,869.5 Z"/></g>
</svg>
